<svg xmlns="http://www.w3.org/2000/svg" viewBox="0 0 272.33 69.48"><defs><style>.cls-1{fill:#fff;}</style></defs><title>Asset 8</title><g id="Layer_2" data-name="Layer 2"><g id="Layer_1-2" data-name="Layer 1"><path class="cls-1" d="M1,1.14Q.89.66,1.82.42A10.77,10.77,0,0,1,4.19.14,26,26,0,0,1,7.36.28a26,26,0,0,1,3.09.48,9.87,9.87,0,0,1,2.2.72q.82.41.48.83a24.48,24.48,0,0,0-.58,4q-.24,2.78-.45,6.57t-.34,8.18q-.14,4.4-.21,8.8t-.1,8.52q0,4.12,0,7.36t0,5.19a7.19,7.19,0,0,0,.17,2.1q.21.48-.52.45a9.6,9.6,0,0,1-2-.38q-1.24-.34-2.75-.89T3.58,51.09Q2.27,50.5,1.41,50c-.57-.32-.86-.57-.86-.76q-.28-.14-.41-2.58T0,40.29q0-4,.1-9T.34,20.94q.14-5.29.31-10.45T1,1.14Z"/><path class="cls-1" d="M21.45,1.28q.14-.62,1.1-.93A8.18,8.18,0,0,1,24.82,0a19.25,19.25,0,0,1,2.75.14,14.66,14.66,0,0,1,2.65.55,6.9,6.9,0,0,1,1.93.89q.72.52.58,1.07a32.87,32.87,0,0,0-1,5q-.52,3.58-.86,8.11,2.2,0,3.85,0t2.41.1a1.66,1.66,0,0,1,1.2,1,7.45,7.45,0,0,1,.76,2,7.11,7.11,0,0,1,.17,2q-.07.93-.48,1-.89.21-3.2.48t-5.19.48q-.21,3.92-.21,7.67t.28,6.7A20.78,20.78,0,0,0,31.35,42Q32,43.83,33,43.83q1.72,0,3.3-2.2a27.89,27.89,0,0,0,2.89-5.23,56.2,56.2,0,0,0,2.23-6.12q.93-3.09,1.41-4.95a3.25,3.25,0,0,1,1.41-2,3.12,3.12,0,0,1,2-.45,2.89,2.89,0,0,1,1.75.89,2.07,2.07,0,0,1,.45,2,65.41,65.41,0,0,1-2.82,10.18A40,40,0,0,1,41.8,43.8a18.07,18.07,0,0,1-4.5,4.95,7.1,7.1,0,0,1-4.78,1.48,17.2,17.2,0,0,1-3-.48,11.89,11.89,0,0,1-2.44-.93,15.83,15.83,0,0,1-2.2-1.37,19.38,19.38,0,0,1-2.17-1.89q-1.38-1.37-2-7a120.48,120.48,0,0,1-.52-15H18.15A3.46,3.46,0,0,1,17,23.41q-.62,0-1.13-1a9.07,9.07,0,0,1-.79-2.3,10.22,10.22,0,0,1-.24-2.41q0-1.1.58-1.31.83-.14,2.13-.24l2.89-.24q.14-3.37.41-7T21.45,1.28Z"/><path class="cls-1" d="M43.59,20.53a1.23,1.23,0,0,1,1-.86,5.87,5.87,0,0,1,2.06-.14,15.72,15.72,0,0,1,2.54.45,15,15,0,0,1,2.41.82,6.19,6.19,0,0,1,1.72,1.1,1.24,1.24,0,0,1,.52,1.17,29.61,29.61,0,0,0-.69,3.13q-.34,2-.58,4.26t-.31,4.67a28.08,28.08,0,0,0,.17,4.3,9.84,9.84,0,0,0,.86,3.16A1.9,1.9,0,0,0,55,43.83q1.79,0,3.37-2.2a26.62,26.62,0,0,0,2.85-5.23,61,61,0,0,0,2.2-6.12q.93-3.09,1.41-4.95a3.25,3.25,0,0,1,1.41-2,3.12,3.12,0,0,1,2-.45,2.89,2.89,0,0,1,1.75.89,2.07,2.07,0,0,1,.45,2,65.41,65.41,0,0,1-2.82,10.18A40,40,0,0,1,63.8,43.8a18.07,18.07,0,0,1-4.5,4.95,7.1,7.1,0,0,1-4.78,1.48,14.31,14.31,0,0,1-5.36-1.38,17.77,17.77,0,0,1-4.33-3.3,8,8,0,0,1-1.65-4.16,45.85,45.85,0,0,1-.65-6.84,70.22,70.22,0,0,1,.21-7.6A52.32,52.32,0,0,1,43.59,20.53Zm1-12.1a4.35,4.35,0,0,1,.07-2.3A6.34,6.34,0,0,1,45.72,4a7.11,7.11,0,0,1,2-1.68,9.3,9.3,0,0,1,2.65-1.07,8,8,0,0,1,5.26.38A4.61,4.61,0,0,1,58.44,5a4.24,4.24,0,0,1-.07,2.27,6.12,6.12,0,0,1-1.13,2.06,8.43,8.43,0,0,1-2,1.72,8.29,8.29,0,0,1-2.61,1.1,9.14,9.14,0,0,1-2.82.24,7,7,0,0,1-2.47-.62,5.84,5.84,0,0,1-1.86-1.34A3.87,3.87,0,0,1,44.55,8.43Z"/><path class="cls-1" d="M65,17q-.14-.48.62-.65a8.77,8.77,0,0,1,1.89-.17A16.35,16.35,0,0,1,70,16.4a20.7,20.7,0,0,1,2.44.52,7,7,0,0,1,1.72.69q.62.38.34.79a18.59,18.59,0,0,0-.34,2.3q-.14,1.41-.21,3.2t-.07,3.88q0,2.1.07,4.23l7-13.61a3,3,0,0,1,.28-.41l.28-.21a2.83,2.83,0,0,1,1.72-.21,17.49,17.49,0,0,1,2.89.62,19.37,19.37,0,0,1,3.06,1.17,10.31,10.31,0,0,1,2.3,1.48q.89.79.76,1.41-.28,1.17-.72,3.16t-.86,4.3q-.41,2.3-.72,4.71a34.33,34.33,0,0,0-.31,4.33A9.13,9.13,0,0,0,90,41.87a1.55,1.55,0,0,0,1.48,1.2,3.4,3.4,0,0,0,1.93-1,13.09,13.09,0,0,0,2.06-2.47,36.75,36.75,0,0,0,2-3.47q1-1.92,1.86-3.88t1.51-3.78q.65-1.82,1-3.2a3,3,0,0,1,1.37-2,3.43,3.43,0,0,1,2.06-.48,2.42,2.42,0,0,1,1.68.89,2.38,2.38,0,0,1,.38,2.1,86.35,86.35,0,0,1-2.72,8.9,54,54,0,0,1-3.57,7.93,22.39,22.39,0,0,1-4.26,5.6,6.14,6.14,0,0,1-4.71,1.9,11.38,11.38,0,0,1-3.33-.82,19.48,19.48,0,0,1-3.09-1.57A18.16,18.16,0,0,1,83.32,46a4.67,4.67,0,0,1-1.17-1.33,20.11,20.11,0,0,1-.65-2.7q-.31-1.68-.55-3.81t-.41-4.54q-.17-2.41-.17-4.81-1.17,2.54-2.2,5.16T76.38,39a42.11,42.11,0,0,0-1.17,4.73,19,19,0,0,0-.34,4.09,7,7,0,0,0,.34,1.91q.21.41-.48.55a6.62,6.62,0,0,1-1.82,0q-1.13-.1-2.51-.34t-2.58-.55a15.2,15.2,0,0,1-2-.65q-.83-.34-.83-.55t.14-3q.14-2.83.21-7.3t0-9.93Q65.31,22.52,65,17Z"/><path class="cls-1" d="M124,23.76a18.3,18.3,0,0,1-1.34,5.77,29.48,29.48,0,0,1-2.72,5.12,30.65,30.65,0,0,1-3.4,4.26,35.33,35.33,0,0,1-3.47,3.2c.23.09.46.17.69.24a6,6,0,0,0,.76.17A7.32,7.32,0,0,0,120,41.6a14.24,14.24,0,0,0,4.16-4.19,27.87,27.87,0,0,0,2.92-5.84q1.17-3.2,1.93-5.88a3.65,3.65,0,0,1,1.48-2.27,3.29,3.29,0,0,1,2.13-.58,2.52,2.52,0,0,1,1.75.93,2.63,2.63,0,0,1,.41,2.27q-.76,3.51-2,7.63a33.25,33.25,0,0,1-3.3,7.67,20.3,20.3,0,0,1-5.29,5.95,13.66,13.66,0,0,1-7.8,2.61,17.27,17.27,0,0,1-5.57-.82,17.45,17.45,0,0,1-5.29-2.68,15,15,0,0,1-4-4.37,11.2,11.2,0,0,1-1.55-5.88,48.21,48.21,0,0,1,.62-6.19,32.34,32.34,0,0,1,1.72-6.57,17,17,0,0,1,2.92-5.09,4.83,4.83,0,0,1,4.23-1.82q7.84.62,11.21,2.61T124,23.76ZM109.24,35.24a2.51,2.51,0,0,1,0,.41.84.84,0,0,0,0,.41,21.19,21.19,0,0,0,3.54-4.3A26.35,26.35,0,0,0,115,27.33a11.71,11.71,0,0,0,.86-3.47q.07-1.41-.69-1.55t-1.51,1a16,16,0,0,0-1.79,2.61,27.75,27.75,0,0,0-1.86,4.43A15.69,15.69,0,0,0,109.24,35.24Z"/><path class="cls-1" d="M129.31,13.79a1.55,1.55,0,0,1,.45-1.48,3.08,3.08,0,0,1,1.51-.69,6.44,6.44,0,0,1,2,0,7.52,7.52,0,0,1,2,.52,3.53,3.53,0,0,1,1.37,1,1.19,1.19,0,0,1,.21,1.27q-.07.89-.21,1.79a16,16,0,0,0-.21,1.62,13.46,13.46,0,0,1-.21,1.55,1.5,1.5,0,0,1-.07.38c0,.16,0,.22.28.17q.69-.07,2.1-.31t3.09-.38Q143.27,19,145,19a14.18,14.18,0,0,1,3.13.38,4.33,4.33,0,0,1,2.13,1.13,2.31,2.31,0,0,1,.48,2.17q-.28,1.17-.62,3.06t-.65,4.06q-.31,2.17-.48,4.37a25.87,25.87,0,0,0,0,4,9.41,9.41,0,0,0,.62,2.92,1.59,1.59,0,0,0,1.51,1.13,4.37,4.37,0,0,0,3.3-2,21.79,21.79,0,0,0,2.82-4.67A52.67,52.67,0,0,0,159.39,30q.93-2.85,1.41-4.71a3.45,3.45,0,0,1,1.38-2.06,2.83,2.83,0,0,1,2-.48,2.8,2.8,0,0,1,1.72.93,2.46,2.46,0,0,1,.58,2,38,38,0,0,1-1.2,6,43.79,43.79,0,0,1-2.1,5.81,38.49,38.49,0,0,1-2.78,5.19,27,27,0,0,1-3.2,4.12,13.86,13.86,0,0,1-3.37,2.65,5.41,5.41,0,0,1-3.3.72,20.74,20.74,0,0,1-6.32-1.75,8.82,8.82,0,0,1-3.71-3.37,13.08,13.08,0,0,1-1.65-5.43,48.76,48.76,0,0,1-.07-7.87V31.6s0-.34.14-.89a10.7,10.7,0,0,0,.14-1.75,8.64,8.64,0,0,0-.17-1.75,1.08,1.08,0,0,0-.79-1,3.35,3.35,0,0,0-1.48.07q-.93.21-1.93.52l-2,.62a5.55,5.55,0,0,1-1.65.31,2,2,0,0,1-1.79-.82q-.41-.76-.28-1a23,23,0,0,0,.72-6Q129.66,17,129.31,13.79Z"/><path class="cls-1" d="M176.89,19.22a1.22,1.22,0,0,1,1-.86,5.69,5.69,0,0,1,2-.14,18.34,18.34,0,0,1,2.51.41,14,14,0,0,1,2.44.79,5.56,5.56,0,0,1,1.72,1.1,1.25,1.25,0,0,1,.48,1.17q-.55,1.79-.86,3T185.65,27a20.55,20.55,0,0,0-.38,2.1q-.14,1.07-.34,2.58a32.92,32.92,0,0,0-.31,4.85,22.67,22.67,0,0,0,.34,3.85,7,7,0,0,0,.93,2.54,1.79,1.79,0,0,0,1.51.93q1.79,0,3.37-2.2a26.62,26.62,0,0,0,2.85-5.23,60.93,60.93,0,0,0,2.2-6.12q.93-3.09,1.41-4.95a3.45,3.45,0,0,1,1.38-2.06,2.76,2.76,0,0,1,3.68.45,2.46,2.46,0,0,1,.58,2,40.44,40.44,0,0,1-2.17,8.9,40.34,40.34,0,0,1-3.88,8,23.77,23.77,0,0,1-4.88,5.67,7.06,7.06,0,0,1-5,1.93,14.32,14.32,0,0,1-5.36-1.38,17.75,17.75,0,0,1-4.33-3.3,4.7,4.7,0,0,1-1-1.93A24.93,24.93,0,0,1,173,48a4.17,4.17,0,0,1-3.37,1.51A12.49,12.49,0,0,1,165,48.47a16.14,16.14,0,0,1-3.47-2.1A11.44,11.44,0,0,1,159.29,44a7.61,7.61,0,0,1-1-1.89,14.87,14.87,0,0,1-.62-4.54,31.19,31.19,0,0,1,.48-5.36,36.14,36.14,0,0,1,1.41-5.47,29.39,29.39,0,0,1,2.17-4.92,15.28,15.28,0,0,1,2.72-3.61,5.52,5.52,0,0,1,3.13-1.62,16.8,16.8,0,0,1,4.13,1.13,21,21,0,0,1,4.95,2.72Zm-8,23.72a2.55,2.55,0,0,0,1.55-.89,12.22,12.22,0,0,0,1.92-2.58,23.77,23.77,0,0,0,1.86-4.09,27,27,0,0,0,1.27-5.5c0-.5.08-1,.1-1.44a10.88,10.88,0,0,1,.17-1.44,7.53,7.53,0,0,0-.45-2.51q-.45-1.27-1.2-1.34-1-.07-2.1,1.37a20.05,20.05,0,0,0-2.2,3.64A33.32,33.32,0,0,0,168,32.94a28.22,28.22,0,0,0-1.07,4.81,9.68,9.68,0,0,0,.14,3.71A1.79,1.79,0,0,0,168.91,42.94Z"/><path class="cls-1" d="M197.37,13.79a1.55,1.55,0,0,1,.45-1.48,3.08,3.08,0,0,1,1.51-.69,6.44,6.44,0,0,1,2,0,7.52,7.52,0,0,1,2,.52,3.54,3.54,0,0,1,1.38,1,1.19,1.19,0,0,1,.21,1.27q-.07.89-.21,1.79a15.87,15.87,0,0,0-.21,1.62,13.55,13.55,0,0,1-.21,1.55,1.51,1.51,0,0,1-.07.38c0,.16,0,.22.28.17q.69-.07,2.1-.31t3.09-.38q1.68-.14,3.44-.1a14.18,14.18,0,0,1,3.13.38,4.34,4.34,0,0,1,2.13,1.13,2.31,2.31,0,0,1,.48,2.17q-.28,1.17-.62,3.06t-.65,4.06q-.31,2.17-.48,4.37a25.76,25.76,0,0,0,0,4,9.42,9.42,0,0,0,.62,2.92,1.59,1.59,0,0,0,1.51,1.13,4.37,4.37,0,0,0,3.3-2,21.81,21.81,0,0,0,2.82-4.67A52.77,52.77,0,0,0,227.45,30q.93-2.85,1.41-4.71a3.45,3.45,0,0,1,1.38-2.06,2.83,2.83,0,0,1,2-.48,2.8,2.8,0,0,1,1.72.93,2.46,2.46,0,0,1,.58,2,38,38,0,0,1-1.2,6,43.79,43.79,0,0,1-2.1,5.81,38.49,38.49,0,0,1-2.78,5.19,27.07,27.07,0,0,1-3.2,4.12,13.87,13.87,0,0,1-3.37,2.65,5.41,5.41,0,0,1-3.3.72,20.74,20.74,0,0,1-6.32-1.75,8.82,8.82,0,0,1-3.71-3.37,13.07,13.07,0,0,1-1.65-5.43,48.8,48.8,0,0,1-.07-7.87V31.6s0-.34.14-.89a10.7,10.7,0,0,0,.14-1.75,8.64,8.64,0,0,0-.17-1.75,1.08,1.08,0,0,0-.79-1,3.35,3.35,0,0,0-1.48.07q-.93.21-1.92.52l-2,.62a5.55,5.55,0,0,1-1.65.31,2,2,0,0,1-1.79-.82q-.41-.76-.28-1a23,23,0,0,0,.72-6Q197.72,17,197.37,13.79Z"/><path class="cls-1" d="M228.86,20.53q.21-1,1.89-1a12.09,12.09,0,0,1,3.61.45,13.92,13.92,0,0,1,3.4,1.37q1.48.86,1.27,1.75-.28,1.17-.62,3.09t-.62,4.16q-.28,2.24-.45,4.5a27.24,27.24,0,0,0,0,4.09,8.84,8.84,0,0,0,.65,3,1.53,1.53,0,0,0,1.55,1.07q1-.07,1.82-1.72A22.33,22.33,0,0,0,242.92,37a48,48,0,0,0,1.2-5.77q.48-3.2.69-6.36a1.12,1.12,0,0,1,0-.28,1.15,1.15,0,0,0,0-.27,21.61,21.61,0,0,1,.89-5.09,1.43,1.43,0,0,1,1.1-.86,6.09,6.09,0,0,1,2.1-.14,17.28,17.28,0,0,1,2.51.41,13.2,13.2,0,0,1,2.37.79,5.65,5.65,0,0,1,1.68,1.1A1.25,1.25,0,0,1,256,21.7a31.26,31.26,0,0,0-.93,5.05q-.31,2.85-.45,5.91t-.1,6.12q0,3.06.1,5.67A34.81,34.81,0,0,0,262,35.79a36,36,0,0,0,4.3-10.66,3.2,3.2,0,0,1,1.44-2,3.15,3.15,0,0,1,2.1-.41,3.08,3.08,0,0,1,1.82,1,2.5,2.5,0,0,1,.62,2.06A33,33,0,0,1,269.9,34a41.08,41.08,0,0,1-4.09,7.22,41.89,41.89,0,0,1-5.26,6.08,49.89,49.89,0,0,1-5.84,4.81,22,22,0,0,1-1.82,7.36,19.84,19.84,0,0,1-3.64,5.5,15.29,15.29,0,0,1-4.74,3.44,11.57,11.57,0,0,1-5.12,1.1,8.39,8.39,0,0,1-5.53-2.06,6.78,6.78,0,0,1-2.3-4.61,8.21,8.21,0,0,1,1.07-5.29A11.76,11.76,0,0,1,236.11,54,22.07,22.07,0,0,1,241,51.7q2.68-.93,5.09-2a42.12,42.12,0,0,0-.21-6.26,16.08,16.08,0,0,1-3.16,4.88,4.83,4.83,0,0,1-4,1.58,15.67,15.67,0,0,1-2.78-.45,9.22,9.22,0,0,1-2.06-.82A11.28,11.28,0,0,1,232,47.41q-.89-.76-2-1.86a7.84,7.84,0,0,1-1.62-4.16,49.48,49.48,0,0,1-.62-6.84A70.22,70.22,0,0,1,228,27,52.33,52.33,0,0,1,228.86,20.53ZM238.48,61a.84.84,0,0,0,.41.79,1.53,1.53,0,0,0,1.31.21,4.38,4.38,0,0,0,1.89-1.13,10,10,0,0,0,2.1-3.16l-2,1q-1,.48-1.82.93a11.73,11.73,0,0,0-1.34.83C238.66,60.69,238.48,60.88,238.48,61Z"/></g></g></svg>